<svg id="arte" xmlns="http://www.w3.org/2000/svg" xmlns:xlink="http://www.w3.org/1999/xlink" viewBox="0 0 300 103.74"><defs><style>.cls-1{fill:none;}.cls-2{clip-path:url(#clip-path);}.cls-3{clip-path:url(#clip-path-2);}.cls-4{fill:#0a2378;}.cls-5{fill:#053780;}.cls-6{fill:#005fbd;}.cls-7{fill:#2da414;}</style><clipPath id="clip-path"><path class="cls-1" d="M-9.73-2386.56v752.48c157.55-15.73,368.34-25.35,600-25.35s442.46,9.62,600,25.35v-752.48c-157.54-15.73-368.34-25.35-600-25.35S147.82-2402.29-9.73-2386.56Z"/></clipPath><clipPath id="clip-path-2"><rect class="cls-1" x="-1020.25" y="-2427.7" width="3221.05" height="1610.53"/></clipPath></defs><path class="cls-4" d="M128.33,22.6c0,.62,0,1.09,0,1.09h-.09s-1.47-2-6.42-2c-6.51,0-11.17,5-11.17,12.79s4.38,12.83,11,12.83a8.17,8.17,0,0,0,7.08-3.56h.1s-.05.61-.05,1.38v1.61h7.7v-34h-8.22Zm-4.57,18c-2.85,0-4.8-2.37-4.8-6s2.24-5.85,4.8-5.85c3.24,0,4.81,2.9,4.81,5.85C128.57,38.76,126.24,40.56,123.76,40.56Z"/><path class="cls-4" d="M151.4,36.1l-3.16,10.22-.47,1.14a3.92,3.92,0,0,1-4,2.47,5.47,5.47,0,0,1-2.52-.9l-2.61,6a11,11,0,0,0,5.7,1.71,10.54,10.54,0,0,0,10.22-7.36l10-27.1h-9Z"/><path class="cls-4" d="M182.37,21.74a8.64,8.64,0,0,0-7.8,4.23h-.09a13.59,13.59,0,0,0,.09-1.52V22.31h-7.89V46.79h8.23V36a9.92,9.92,0,0,1,.47-3.23,4.81,4.81,0,0,1,4.85-3.51c1.8,0,2.71.95,2.71,3.23V46.79h8.22V30.92C191.16,24,187.31,21.74,182.37,21.74Z"/><path class="cls-4" d="M205.85,21.74a18.5,18.5,0,0,0-10.27,3.19l2.85,5.8S202,28.4,205,28.4c2,0,3.61.66,3.61,2.71v.42h-.33c-3.8,0-14.21.81-14.21,7.94,0,4.85,3.75,7.89,8.31,7.89,5.14,0,6.94-3.56,6.94-3.56h.1a12.26,12.26,0,0,0-.1,1.52v1.47h7.51V31.72C216.87,25.5,212.74,21.74,205.85,21.74Zm2.9,15c0,2-1.91,4.33-4,4.33-1.62,0-2.33-.91-2.33-2.05,0-2,3-2.8,5.6-2.8h.77Z"/><path class="cls-4" d="M251.57,21.74a9.46,9.46,0,0,0-7.84,4.14h-.1a7.08,7.08,0,0,0-6.84-4.14A8.71,8.71,0,0,0,229.52,26h-.1a12.26,12.26,0,0,0,.1-1.52V22.31h-7.89V46.79h8.22V36.67a15.43,15.43,0,0,1,.24-3c.57-2.62,1.9-4.42,4.46-4.42,1.57,0,1.9,1.28,1.9,3.09V46.79h8.23V36.67a13.65,13.65,0,0,1,.19-2.85c.52-2.71,1.9-4.61,4.51-4.61,1.57,0,1.9,1.28,1.9,3.09V46.79h8.23V30.92C259.51,24.17,256,21.74,251.57,21.74Z"/><rect class="cls-4" x="264.31" y="22.31" width="8.22" height="24.48"/><path class="cls-4" d="M297,37.57s-3.28,3-6.71,3a5.92,5.92,0,0,1-6.13-6.09A5.63,5.63,0,0,1,290,28.59,8.94,8.94,0,0,1,295.77,31l3.47-5.51s-3.09-3.71-9.74-3.71c-8.8,0-13.64,6.23-13.64,12.79,0,6.75,4.89,12.83,13.64,12.83a14.72,14.72,0,0,0,10.5-4Z"/><path class="cls-4" d="M122.05,80.24V72.73h5.14V66.31h-5.14v-7h-8v7h-3.38v6.42h3.14v8.6c0,8.22,7.56,9.27,11.46,9.27a15,15,0,0,0,2.23-.15V83.33s-.43,0-1.09,0C124.86,83.37,122.05,83,122.05,80.24Z"/><path class="cls-4" d="M139.26,71.54h-.1a12.26,12.26,0,0,0,.1-1.52V65.88h-7.89V90.36h8.22V81.09a11,11,0,0,1,.43-3.33,6.18,6.18,0,0,1,6.32-4.27,8.82,8.82,0,0,1,1.66.14V65.55a5.22,5.22,0,0,0-.95-.1A8.49,8.49,0,0,0,139.26,71.54Z"/><path class="cls-4" d="M160.74,65.31a18.48,18.48,0,0,0-10.26,3.19l2.85,5.8s3.51-2.33,6.6-2.33c2,0,3.62.66,3.62,2.71v.42h-.34c-3.8,0-14.21.81-14.21,7.94,0,4.85,3.76,7.89,8.32,7.89,5.13,0,6.94-3.56,6.94-3.56h.09a13.59,13.59,0,0,0-.09,1.52v1.47h7.51V75.29C171.77,69.07,167.63,65.31,160.74,65.31Zm2.9,15c0,2-1.9,4.33-4,4.33-1.61,0-2.33-.91-2.33-2,0-2,3-2.8,5.61-2.8h.76Z"/><path class="cls-4" d="M187.55,78.91a42.49,42.49,0,0,0-.9,4.23h-.1a42.53,42.53,0,0,0-.9-4.23l-3.81-13h-8.65l8.46,24.48h10L200,65.88h-8.7Z"/><path class="cls-4" d="M224.38,77.15c0-6.8-4.08-11.84-11.31-11.84-7.89,0-12.74,5.61-12.74,12.79,0,6.51,4.71,12.83,13.45,12.83a16.53,16.53,0,0,0,10.46-3.56l-3-5.76a12.8,12.8,0,0,1-6.75,2.48,5.46,5.46,0,0,1-5.7-4.38h15.44S224.38,78,224.38,77.15ZM208.94,75c.42-1.81,1.56-3.52,3.94-3.52A3.33,3.33,0,0,1,216.11,75Z"/><path class="cls-4" d="M238.07,83.37c-1.85,0-2.28-.81-2.28-3.13V56.38h-8.22V81.33c0,8.22,4.65,9.27,9,9.27a21.24,21.24,0,0,0,2.47-.15V83.33S238.59,83.37,238.07,83.37Z"/><path class="cls-5" d="M79.78,31.92,33.5,5.74a11.35,11.35,0,0,0-6.12-1.27A9.73,9.73,0,0,1,33.5,5.74L27.66,2.43A18.53,18.53,0,0,0,2.46,27.78l.47.83h0A8.39,8.39,0,0,1,14.34,17.13L61.1,43.59l17.71,10a8.39,8.39,0,0,1,0,14.6h0l1-.55A20.54,20.54,0,0,0,79.78,31.92Z"/><path class="cls-6" d="M79.78,31.92,53.11,16.83l3.36,2.26a23.9,23.9,0,0,1,.36,39.31h0L8.69,85.64a9.68,9.68,0,0,0,9.54,16.84L79.78,67.66A20.54,20.54,0,0,0,79.78,31.92Z"/><path class="cls-5" d="M17.87,102.69,77.82,68.77h0l-1.72,1a23.78,23.78,0,0,1-32.33-8.86L23.29,25.2h0L20,19.37C14.9,10.58,24.68.75,33.5,5.74L27.66,2.43A18.53,18.53,0,0,0,0,18.56H0a18.53,18.53,0,0,0,2.46,9.22L26.78,70.16A23.79,23.79,0,0,1,17.87,102.69Z"/><path class="cls-4" d="M18,102.58l.19-.1L77.82,68.77h0l-1.72,1a23.77,23.77,0,0,1-29.86-5.35l-17.57,10A23.77,23.77,0,0,1,18,102.58Z"/><path class="cls-4" d="M79.78,31.92,53.11,16.83l3.36,2.26a23.83,23.83,0,0,1,9.32,27.15l13,7.37a8.39,8.39,0,0,1,0,14.6h0l1-.55A20.54,20.54,0,0,0,79.78,31.92Z"/><path class="cls-4" d="M2.93,28.61h0A8.39,8.39,0,0,1,14.34,17.13l6.4,3.63L20,19.37c-4-7,1.35-14.64,8.16-15h0c.23,0,.47,0,.7,0h.09c.22,0,.44,0,.66,0l.16,0,.6.1.24,0,.53.13.34.1.45.15.46.19.33.14a8.62,8.62,0,0,1,.8.41L27.66,2.43A19,19,0,0,0,23.45.68L22.5.44a18.35,18.35,0,0,0-9.38.39A19.23,19.23,0,0,0,9.75,2.25q-.6.31-1.17.69A18.48,18.48,0,0,0,2.09,27.08c.12.24.24.47.37.7Z"/><path class="cls-6" d="M137.83,22.31,148.11,46l.21.06,3.08-10-4.26-13.79Z"/><path class="cls-7" d="M269.7,12.81h-5.3v3.68a2.74,2.74,0,0,0,2.74,2.74h5.29V15.54A2.73,2.73,0,0,0,269.7,12.81Z"/></svg>