<?xml version="1.0" encoding="UTF-8"?> <svg xmlns="http://www.w3.org/2000/svg" preserveAspectRatio="xMidYMid meet" data-bbox="20 21 158 158" viewBox="20 21 158 158" height="200" width="200" data-type="color" role="img" aria-labelledby="svgcid--au0plt-fawnhj"><defs><style>#comp-kylf6h9j svg [data-color="1"] {fill: #FFFDF9;}</style></defs><title id="svgcid--au0plt-fawnhj">Order Now</title><g><path d="M110.758 99.797c-.013-.033-.037-.061-.057-.091-.017-.026-.027-.055-.05-.079-.004-.004-.008-.005-.012-.008-.004-.004-.005-.008-.008-.012L90.508 80.529a.542.542 0 0 0-.745.785L109.473 100l-19.709 18.686a.54.54 0 1 0 .745.785l20.123-19.078.009-.012.012-.008c.022-.023.032-.053.049-.079.02-.03.044-.058.057-.091.013-.033.016-.067.023-.101.007-.034.017-.067.017-.101s-.01-.067-.017-.101c-.008-.036-.011-.07-.024-.103z" fill="#000010" data-color="1"></path><path d="M89.369 40.405c.512.407 1.196.555 2.051.444.855-.111 1.478-.429 1.87-.953.529-.649.724-1.511.585-2.585-.142-1.096-.551-1.879-1.226-2.35-.512-.406-1.196-.555-2.051-.443-.855.111-1.478.428-1.87.953-.535.628-.731 1.49-.589 2.586.14 1.073.549 1.856 1.23 2.348zm.252-4.127c.247-.404.619-.637 1.114-.702.495-.064.912.068 1.251.397.338.329.551.829.638 1.5.088.674.01 1.212-.234 1.615-.243.403-.613.637-1.108.701s-.914-.067-1.256-.394c-.342-.327-.557-.827-.645-1.501-.088-.674-.008-1.212.24-1.616z" fill="#000010" data-color="1"></path><path d="m99.342 37.819 1.231.029c.351.008.589.078.713.21.125.131.185.389.181.774l-.005.561a2.9 2.9 0 0 0 .115.846l1.391.034.004-.152a.503.503 0 0 1-.224-.349c-.02-.099-.026-.286-.02-.562l.01-.405c.01-.423-.04-.738-.151-.947-.111-.208-.305-.372-.58-.491.336-.106.579-.296.73-.57a1.81 1.81 0 0 0 .14-1.477 1.885 1.885 0 0 0-.291-.515 1.5 1.5 0 0 0-.554-.435c-.22-.101-.536-.16-.948-.178l-2.885-.069-.144 6.031 1.231.03.056-2.365zm.063-2.619 1.391.033c.259.006.453.047.581.12.227.131.337.379.328.745-.008.338-.133.562-.374.671-.137.062-.339.09-.609.084l-1.356-.032.039-1.621z" fill="#000010" data-color="1"></path><path d="M111.353 35.461a3.172 3.172 0 0 0-.897-.289l-2.563-.446-1.035 5.943 2.562.446c.898.156 1.627-.097 2.186-.761.413-.493.688-1.135.826-1.925.054-.312.074-.646.059-1.003a2.684 2.684 0 0 0-.257-1.033 1.988 1.988 0 0 0-.881-.932zm-.197 2.832c-.076.438-.205.805-.387 1.1-.332.538-.792.755-1.379.653l-1.147-.2.676-3.879 1.147.2c.565.099.915.326 1.048.683s.147.838.042 1.443z" fill="#000010" data-color="1"></path><path fill="#000010" d="m115.566 42.507 4.344 1.423.337-1.03-3.173-1.04.483-1.474 2.784.913.326-.996-2.784-.913.399-1.217 3.033.994.333-1.015-4.205-1.378-1.877 5.733z" data-color="1"></path><path d="M129.11 44.32a1.8 1.8 0 0 0 .752-1.279 1.91 1.91 0 0 0-.046-.589c-.056-.235-.162-.444-.319-.629s-.418-.372-.784-.562l-2.585-1.281-2.679 5.406 1.104.547 1.05-2.12 1.103.547c.315.156.501.319.558.491s.003.431-.163.778l-.242.506a3.014 3.014 0 0 0-.253.815l1.247.618.067-.136a.502.502 0 0 1-.056-.411c.024-.098.097-.271.219-.517l.18-.363c.188-.379.275-.686.263-.922-.012-.236-.118-.466-.318-.69.348.044.649-.025.902-.209zm-1.262-.618c-.15-.001-.345-.062-.587-.181l-1.215-.602.72-1.452 1.247.618c.232.115.39.233.475.354.151.215.145.486-.017.813-.151.303-.358.453-.623.45z" fill="#000010" data-color="1"></path><path fill="#000010" d="m139.134 50.028-.855 4.86.968.807 3.864-4.633-.903-.752-2.693 3.231.854-4.765-1.015-.846-3.863 4.633.902.753 2.741-3.288z" data-color="1"></path><path d="M143.747 60.572c.57.646 1.183.985 1.836 1.016.834.075 1.657-.246 2.469-.963.828-.731 1.249-1.508 1.261-2.331.05-.652-.21-1.301-.781-1.948-.57-.647-1.182-.985-1.836-1.016-.82-.092-1.644.228-2.472.96-.812.717-1.232 1.495-1.259 2.334-.049.652.211 1.301.782 1.948zm.423-1.969c.079-.467.374-.925.883-1.375.509-.45 1-.685 1.473-.706.473-.021.875.156 1.205.53.331.374.454.794.371 1.258-.083.464-.378.921-.886 1.368-.509.45-.999.686-1.469.71-.47.024-.87-.151-1.201-.526-.329-.372-.455-.792-.376-1.259z" fill="#000010" data-color="1"></path><path fill="#000010" d="m149.296 67.633 3.383-1.239 1.103-.433-.879.795-2.615 2.478.636 1.025 6.021-1.734-.676-1.092-3.391 1.156-.884.329.721-.663 2.558-2.429-.7-1.13-3.312 1.251-.892.347.725-.653 2.517-2.497-.705-1.138-4.226 4.632.616.995z" data-color="1"></path><path fill="#000010" d="m159.033 78.362.41 1.17-1.156.405-.41-1.17 1.156-.405z" data-color="1"></path><path d="M158.608 90.452c-.408.512-.556 1.195-.447 2.05.11.855.426 1.479.95 1.871.648.53 1.51.727 2.584.589 1.096-.141 1.88-.548 2.352-1.222.407-.512.556-1.195.447-2.05-.11-.855-.426-1.479-.95-1.871-.627-.536-1.489-.733-2.585-.593-1.074.138-1.858.547-2.351 1.226zm1.009.659c.328-.342.828-.556 1.502-.642.674-.086 1.212-.006 1.616.243.403.248.636.62.7 1.115.064.495-.069.912-.399 1.25-.329.338-.83.55-1.501.636-.674.087-1.212.008-1.615-.236s-.636-.614-.699-1.109c-.064-.497.068-.915.396-1.257z" fill="#000010" data-color="1"></path><path d="m158.845 99.125-.031 1.232 2.365.06-.031 1.231c-.009.351-.079.589-.21.713-.131.125-.389.185-.774.18l-.561-.006a2.987 2.987 0 0 0-.846.114l-.035 1.391.151.004a.503.503 0 0 1 .35-.224c.099-.019.286-.026.561-.019l.405.01c.423.011.739-.039.947-.15.209-.111.373-.304.491-.579.106.336.296.579.569.731a1.798 1.798 0 0 0 1.476.142 1.87 1.87 0 0 0 .515-.291c.189-.15.335-.334.436-.554.101-.22.161-.536.18-.948l.073-2.885-6.031-.152zm4.917 2.748c-.007.259-.047.452-.121.58-.131.227-.38.336-.745.327-.338-.009-.562-.133-.67-.374-.062-.137-.09-.339-.083-.609l.034-1.356 1.62.041-.035 1.391z" fill="#000010" data-color="1"></path><path d="M157.868 110.499c-.158.898.095 1.627.758 2.188.492.413 1.134.69 1.924.829.312.055.646.075 1.004.06a2.69 2.69 0 0 0 1.034-.255c.411-.194.721-.487.932-.88.124-.23.22-.529.291-.897l.45-2.562-5.941-1.044-.452 2.561zm1.069-.028.202-1.147 3.878.682-.202 1.147c-.099.565-.328.914-.685 1.047-.357.133-.838.146-1.443.04-.438-.077-.805-.207-1.099-.389-.537-.334-.754-.794-.651-1.38z" fill="#000010" data-color="1"></path><path fill="#000010" d="m155.037 120.985 1.03.339 1.044-3.172 1.473.485-.916 2.784.995.327.917-2.783 1.217.4-.999 3.032 1.015.335 1.383-4.203-5.73-1.886-1.429 4.342z" data-color="1"></path><path d="m153.028 125.624 2.118 1.053-.548 1.103c-.157.314-.32.5-.492.557-.172.057-.431.003-.778-.164l-.506-.242a2.929 2.929 0 0 0-.815-.254l-.62 1.246.136.068a.498.498 0 0 1 .411-.055c.098.024.27.097.517.22l.363.18c.379.188.686.277.922.265.236-.012.466-.118.69-.317-.046.349.023.65.207.903s.403.443.66.571c.213.106.418.167.618.182.199.016.396.001.59-.045.235-.056.444-.162.629-.318.184-.156.372-.417.563-.783l1.285-2.584-5.401-2.687-.549 1.101zm2.408 2.712.604-1.215 1.451.722-.62 1.246c-.115.232-.234.39-.355.475-.215.151-.486.145-.814-.018-.303-.151-.453-.358-.449-.623.002-.15.063-.345.183-.587z" fill="#000010" data-color="1"></path><path fill="#000010" d="m145.633 137.445 3.284 2.746-4.859-.862-.809.967 4.628 3.87.754-.902-3.227-2.698 4.763.861.847-1.013-4.628-3.87-.753.901z" data-color="1"></path><path d="M140.307 144.02c-.652-.051-1.302.208-1.949.777-.647.57-.987 1.181-1.019 1.834-.076.834.243 1.658.959 2.471.73.83 1.506 1.251 2.329 1.265.652.051 1.302-.208 1.949-.778.647-.57.987-1.181 1.019-1.834.093-.82-.226-1.644-.956-2.474-.715-.812-1.493-1.233-2.332-1.261zm1.563 4.769c-.375.33-.794.453-1.259.369-.464-.084-.92-.38-1.367-.888-.449-.51-.685-1-.708-1.471-.023-.47.152-.87.527-1.2.375-.33.795-.455 1.262-.375.467.08.924.375 1.373.885.449.51.683 1.002.704 1.475.021.473-.157.875-.532 1.205z" fill="#000010" data-color="1"></path><path fill="#000010" d="m131.297 150.331 1.234 3.384.432 1.105-.794-.881-2.474-2.619-1.027.635 1.727 6.024 1.092-.674-1.151-3.393-.327-.885.661.722 2.426 2.562 1.131-.699-1.246-3.314-.347-.893.653.727 2.493 2.52 1.139-.703-4.626-4.233-.996.615z" data-color="1"></path><path fill="#000010" d="m120.149 158.892.402 1.156-1.171.407-.402-1.156 1.17-.407z" data-color="1"></path><path d="M108.465 159.612c-.511-.408-1.194-.558-2.05-.449-.855.108-1.479.424-1.872.947-.531.648-.729 1.509-.592 2.584.139 1.096.545 1.881 1.218 2.354.511.408 1.194.558 2.05.45.855-.108 1.48-.424 1.872-.947.537-.627.735-1.488.596-2.584-.135-1.076-.543-1.86-1.222-2.355zm-.264 4.126c-.249.403-.621.636-1.116.699-.495.063-.911-.071-1.249-.401-.338-.33-.549-.83-.634-1.502-.086-.674-.006-1.212.239-1.614.244-.403.614-.635 1.11-.698.495-.063.914.069 1.255.398.341.328.555.829.641 1.503.084.674.003 1.213-.246 1.615z" fill="#000010" data-color="1"></path><path d="m98.487 162.169-1.231-.033c-.351-.009-.588-.08-.713-.212-.124-.132-.184-.39-.179-.774l.007-.561a2.995 2.995 0 0 0-.112-.847l-1.391-.037-.004.151c.12.077.194.194.223.35.02.099.026.286.019.561l-.011.405c-.011.423.038.739.149.948.111.209.303.373.578.492-.336.106-.58.295-.731.568a1.813 1.813 0 0 0-.24.839c-.007.237.025.45.095.637.069.187.166.359.29.515.149.19.334.335.553.436.219.102.535.162.947.181l2.885.077.162-6.03-1.232-.033-.064 2.367zm-.07 2.618-1.391-.037c-.259-.007-.452-.047-.58-.122-.227-.131-.336-.38-.326-.746.009-.338.134-.561.376-.669.136-.062.339-.089.609-.082l1.356.036-.044 1.62z" fill="#000010" data-color="1"></path><path d="M86.221 159.598c-.414.492-.692 1.133-.832 1.922a4.645 4.645 0 0 0-.061 1.003c.014.357.099.702.253 1.034.194.411.486.722.879.933.23.124.529.221.897.292l2.561.454 1.053-5.94-2.561-.454c-.898-.159-1.627.093-2.189.756zm3.362.517-.687 3.877-1.146-.203c-.565-.1-.914-.329-1.046-.687-.132-.357-.145-.838-.038-1.443.078-.438.208-.804.39-1.099.334-.537.794-.753 1.381-.649l1.146.204z" fill="#000010" data-color="1"></path><path fill="#000010" d="m77.589 157.025 3.17 1.05-.487 1.472-2.782-.92-.329.994 2.782.921-.403 1.216-3.03-1.003-.336 1.014 4.2 1.39 1.895-5.727-4.34-1.436-.34 1.029z" data-color="1"></path><path d="m72.237 156.096-1.102-.55c-.314-.157-.499-.321-.557-.493-.057-.172-.002-.431.165-.777l.243-.505c.077-.16.138-.323.185-.489.022-.081.046-.189.071-.326l-1.245-.622-.068.135c.076.12.094.258.055.412a3.04 3.04 0 0 1-.221.516l-.181.362c-.189.378-.278.686-.266.922.012.236.117.466.316.691-.349-.046-.65.023-.903.206a1.807 1.807 0 0 0-.755 1.276c-.016.2-.001.396.045.59.055.235.161.445.317.629.156.185.417.373.782.565l2.581 1.289 2.695-5.397-1.102-.55-1.055 2.116zm-1.17 2.344-1.245-.622c-.232-.116-.39-.235-.474-.356-.15-.216-.144-.487.02-.814.151-.303.359-.452.623-.448.15.002.345.062.586.183l1.213.606-.723 1.451z" fill="#000010" data-color="1"></path><path fill="#000010" d="m58.732 149.847.869-4.858-.965-.81-3.877 4.622.9.755 2.703-3.223-.868 4.762 1.012.849 3.877-4.622-.9-.755-2.751 3.28z" data-color="1"></path><path d="M54.141 139.28c-.569-.648-1.179-.988-1.833-1.021-.834-.078-1.658.241-2.473.955-.83.729-1.253 1.505-1.269 2.327-.052.652.206 1.302.775 1.95.569.648 1.18.989 1.833 1.022.819.094 1.644-.223 2.475-.952.814-.714 1.236-1.491 1.266-2.33.053-.652-.205-1.302-.774-1.951zm-.43 1.968c-.081.466-.376.924-.887 1.372-.511.448-1.003.682-1.475.701-.473.02-.874-.159-1.204-.534-.329-.375-.452-.795-.367-1.259.084-.464.381-.919.89-1.366.511-.448 1.001-.684 1.471-.706.47-.023.87.154 1.199.529.329.375.454.796.373 1.263z" fill="#000010" data-color="1"></path><path fill="#000010" d="m48.623 132.218-3.386 1.23-1.104.431.881-.793 2.622-2.471-.633-1.027-6.027 1.718.673 1.093 3.395-1.146.885-.326-.723.66-2.565 2.422.698 1.132 3.315-1.241.893-.346-.728.652-2.523 2.49.701 1.139 4.24-4.62-.614-.997z" data-color="1"></path><path fill="#000010" d="m39.666 119.882.406 1.172-1.156.4-.406-1.171 1.156-.4z" data-color="1"></path><path d="M39.373 109.375c.409-.511.56-1.194.452-2.049s-.422-1.48-.945-1.874c-.647-.532-1.508-.73-2.583-.595-1.096.137-1.881.543-2.355 1.215-.409.511-.56 1.194-.452 2.049.107.855.422 1.48.945 1.873.626.538 1.487.738 2.583.6 1.075-.134 1.86-.541 2.355-1.219zm-1.006-.661c-.328.341-.83.554-1.504.638-.674.085-1.213.002-1.615-.247-.402-.249-.635-.622-.697-1.117-.062-.495.072-.912.402-1.249.33-.337.831-.548 1.503-.632.674-.085 1.212-.005 1.614.241.402.245.634.615.696 1.111.062.496-.071.914-.399 1.255z" fill="#000010" data-color="1"></path><path d="m39.195 99.451-2.365-.067.035-1.231c.01-.351.081-.588.213-.712s.39-.183.774-.177l.561.008a2.995 2.995 0 0 0 .847-.112l.039-1.391-.151-.004a.504.504 0 0 1-.35.223 3.078 3.078 0 0 1-.561.017l-.405-.011c-.423-.012-.738.037-.948.147-.209.11-.374.302-.493.577-.105-.336-.294-.58-.567-.732a1.811 1.811 0 0 0-.839-.241 1.688 1.688 0 0 0-1.153.383c-.19.149-.336.333-.438.552-.101.22-.162.535-.182.947l-.082 2.884 6.03.171.035-1.231zm-3.363-.096-1.62-.046.039-1.391c.007-.259.049-.452.123-.58.132-.227.381-.335.746-.325.338.009.561.135.669.376.062.137.089.34.081.609l-.038 1.357z" fill="#000010" data-color="1"></path><path d="M37.499 86.288a4.706 4.706 0 0 0-1.003-.063 2.686 2.686 0 0 0-1.034.252 2 2 0 0 0-.935.877c-.124.23-.222.529-.293.896l-.458 2.56 5.938 1.062.458-2.561c.161-.898-.09-1.628-.752-2.19-.491-.413-1.132-.692-1.921-.833zm1.604 3.05-.205 1.146-3.875-.693.205-1.146c.101-.565.33-.913.688-1.045.357-.132.838-.144 1.443-.036.438.078.804.209 1.098.392.535.335.751.796.646 1.382z" fill="#000010" data-color="1"></path><path fill="#000010" d="m43.035 78.836-1.029-.342-1.055 3.169-1.471-.49.924-2.78-.994-.331-.924 2.781-1.216-.404 1.007-3.03-1.013-.337-1.396 4.199 5.724 1.903 1.443-4.338z" data-color="1"></path><path d="m45.057 74.203-2.115-1.06.552-1.101c.157-.314.322-.499.494-.556.172-.057.431-.001.777.167l.505.244a2.934 2.934 0 0 0 .815.257l.623-1.244-.135-.068a.503.503 0 0 1-.412.054 3.075 3.075 0 0 1-.516-.221l-.362-.182c-.378-.189-.685-.279-.921-.267-.236.011-.467.117-.691.315.047-.349-.021-.65-.204-.903a1.814 1.814 0 0 0-.659-.573 1.687 1.687 0 0 0-1.207-.14 1.49 1.49 0 0 0-.63.316c-.185.156-.373.416-.566.781l-1.293 2.58 5.393 2.703.552-1.102zm-2.4-2.72-.608 1.213-1.449-.726.623-1.244c.116-.232.235-.39.357-.474.215-.15.487-.143.813.021.303.151.451.36.447.624-.001.15-.062.346-.183.586z" fill="#000010" data-color="1"></path><path fill="#000010" d="m52.481 62.412-3.276-2.755 4.857.875.811-.964-4.617-3.883-.756.9 3.219 2.707-4.761-.875-.85 1.011 4.617 3.883.756-.899z" data-color="1"></path><path d="M57.827 55.851c.652.053 1.302-.204 1.951-.772.649-.568.99-1.178 1.024-1.831.079-.834-.238-1.658-.952-2.474-.728-.832-1.503-1.255-2.325-1.272-.652-.053-1.303.204-1.951.772-.649.568-.99 1.178-1.024 1.831-.095.819.221 1.645.948 2.476.713.816 1.489 1.239 2.329 1.27zm-1.55-4.773c.376-.329.795-.451 1.26-.366.464.085.919.383 1.365.892.447.511.682 1.002.704 1.473.022.47-.155.87-.531 1.199s-.797.452-1.263.371c-.466-.082-.923-.378-1.37-.889-.448-.511-.681-1.004-.699-1.476-.02-.474.158-.875.534-1.204z" fill="#000010" data-color="1"></path><path fill="#000010" d="m65.205 45.071.792.883 2.466 2.626 1.029-.632-1.709-6.029-1.094.671 1.141 3.397.325.885-.66-.724-2.418-2.569-1.133.696 1.236 3.317.345.894-.651-.729-2.486-2.527-1.141.7 4.613 4.247.999-.613-1.225-3.388-.429-1.105z" data-color="1"></path><path fill="#000010" d="m78.814 39.466.399 1.157-1.172.404-.4-1.157 1.173-.404z" data-color="1"></path><path d="M154.861 44.139C139.94 29.218 120.102 21 99 21s-40.94 8.218-55.861 23.139S20 78.898 20 100s8.218 40.94 23.139 55.861S77.898 179 99 179s40.94-8.218 55.861-23.139S178 121.102 178 100s-8.218-40.94-23.139-55.861zm-.765 110.957C139.38 169.813 119.812 177.918 99 177.918s-40.38-8.105-55.096-22.821S21.082 120.812 21.082 100c0-20.812 8.105-40.38 22.822-55.096S78.188 22.082 99 22.082s40.38 8.105 55.096 22.822S176.918 79.188 176.918 100c0 20.812-8.105 40.38-22.822 55.096z" fill="#000010" data-color="1"></path></g></svg> 